<svg xmlns="http://www.w3.org/2000/svg" xmlns:xlink="http://www.w3.org/1999/xlink" width="500" zoomAndPan="magnify" viewBox="0 0 375 374.999991" height="500" preserveAspectRatio="xMidYMid meet" version="1.0"><defs><g/></defs><path fill="#002366" d="M 163.738281 345.746094 L 238.636719 270.941406 C 240.746094 268.828125 242.746094 266.617188 244.636719 264.3125 C 246.53125 262.003906 248.308594 259.609375 249.964844 257.128906 C 251.625 254.644531 253.15625 252.089844 254.5625 249.457031 C 255.972656 246.824219 257.246094 244.132812 258.390625 241.375 C 259.535156 238.617188 260.542969 235.8125 261.410156 232.957031 C 262.277344 230.101562 263.007812 227.210938 263.59375 224.285156 C 264.175781 221.355469 264.617188 218.410156 264.914062 215.4375 C 265.210938 212.46875 265.363281 209.492188 265.367188 206.507812 C 265.382812 196.636719 263.859375 187.007812 260.796875 177.625 C 258.582031 170.933594 255.617188 164.589844 251.902344 158.597656 C 248.191406 152.605469 243.828125 147.125 238.816406 142.164062 C 234.550781 137.882812 229.902344 134.0625 224.871094 130.707031 C 219.839844 127.355469 214.527344 124.53125 208.933594 122.242188 L 183.339844 147.832031 C 181.945312 149.257812 180.664062 150.78125 179.503906 152.402344 C 180.464844 152.492188 181.421875 152.605469 182.375 152.746094 C 183.332031 152.886719 184.28125 153.050781 185.226562 153.242188 C 186.171875 153.433594 187.113281 153.648438 188.046875 153.890625 C 188.980469 154.128906 189.90625 154.394531 190.828125 154.6875 C 191.746094 154.976562 192.660156 155.289062 193.5625 155.628906 C 194.464844 155.96875 195.359375 156.332031 196.246094 156.714844 C 197.128906 157.101562 198 157.511719 198.863281 157.945312 C 199.726562 158.378906 200.578125 158.832031 201.414062 159.3125 C 202.253906 159.789062 203.078125 160.289062 203.886719 160.8125 C 204.699219 161.332031 205.496094 161.875 206.28125 162.441406 C 207.0625 163.003906 207.828125 163.589844 208.582031 164.195312 C 209.332031 164.800781 210.066406 165.425781 210.785156 166.070312 C 211.503906 166.714844 212.203125 167.375 212.886719 168.058594 C 213.570312 168.738281 214.234375 169.4375 214.878906 170.15625 C 215.523438 170.871094 216.152344 171.605469 216.757812 172.355469 C 217.363281 173.105469 217.949219 173.871094 218.515625 174.652344 C 219.082031 175.433594 219.628906 176.230469 220.152344 177.042969 C 220.675781 177.851562 221.175781 178.675781 221.65625 179.511719 C 222.136719 180.351562 222.59375 181.199219 223.027344 182.058594 C 223.460938 182.921875 223.871094 183.792969 224.261719 184.675781 C 224.648438 185.5625 225.011719 186.453125 225.351562 187.355469 C 225.695312 188.257812 226.007812 189.171875 226.300781 190.089844 C 226.59375 191.007812 226.859375 191.9375 227.105469 192.871094 C 227.347656 193.804688 227.5625 194.742188 227.757812 195.6875 C 227.949219 196.632812 228.117188 197.582031 228.257812 198.539062 C 228.402344 199.492188 228.515625 200.449219 228.609375 201.410156 C 228.699219 202.371094 228.765625 203.332031 228.804688 204.296875 C 228.84375 205.261719 228.859375 206.226562 228.847656 207.191406 C 228.835938 208.15625 228.800781 209.117188 228.738281 210.082031 C 228.675781 211.042969 228.585938 212.003906 228.472656 212.960938 C 228.359375 213.921875 228.21875 214.875 228.054688 215.824219 C 227.890625 216.777344 227.699219 217.722656 227.484375 218.664062 C 226.390625 223.679688 224.605469 228.441406 222.132812 232.945312 C 219.660156 237.445312 216.601562 241.503906 212.953125 245.121094 L 137.917969 319.882812 C 132.816406 324.988281 126.9375 328.933594 120.277344 331.71875 C 118.835938 332.316406 117.371094 332.855469 115.882812 333.328125 C 114.394531 333.800781 112.890625 334.210938 111.367188 334.554688 C 109.84375 334.898438 108.308594 335.175781 106.761719 335.386719 C 105.210938 335.601562 103.660156 335.746094 102.097656 335.824219 C 100.539062 335.902344 98.980469 335.914062 97.417969 335.855469 C 95.859375 335.800781 94.300781 335.679688 92.753906 335.488281 C 91.203125 335.296875 89.664062 335.042969 88.132812 334.71875 C 86.605469 334.398438 85.09375 334.011719 83.601562 333.558594 C 82.105469 333.105469 80.632812 332.589844 79.183594 332.011719 C 77.730469 331.433594 76.308594 330.792969 74.914062 330.09375 C 73.515625 329.390625 72.15625 328.632812 70.824219 327.8125 C 69.492188 326.996094 68.203125 326.121094 66.945312 325.191406 C 65.691406 324.261719 64.480469 323.28125 63.308594 322.246094 C 62.136719 321.210938 61.015625 320.128906 59.9375 319 C 58.859375 317.871094 57.832031 316.695312 56.855469 315.476562 C 55.878906 314.257812 54.957031 313 54.089844 311.699219 C 53.21875 310.402344 52.410156 309.070312 51.65625 307.699219 C 50.902344 306.332031 50.210938 304.933594 49.574219 303.507812 C 48.941406 302.078125 48.371094 300.628906 47.863281 299.152344 C 47.355469 297.675781 46.910156 296.179688 46.53125 294.664062 C 46.152344 293.148438 45.835938 291.621094 45.589844 290.078125 C 45.339844 288.535156 45.160156 286.988281 45.042969 285.429688 C 44.929688 283.871094 44.882812 282.3125 44.902344 280.75 C 44.921875 279.1875 45.007812 277.628906 45.160156 276.078125 C 45.3125 274.523438 45.53125 272.976562 45.820312 271.441406 C 46.105469 269.90625 46.457031 268.386719 46.875 266.882812 C 47.289062 265.375 47.769531 263.890625 48.316406 262.429688 C 48.859375 260.964844 49.464844 259.527344 50.132812 258.113281 C 50.800781 256.703125 51.53125 255.324219 52.316406 253.972656 C 53.105469 252.625 53.945312 251.3125 54.847656 250.035156 C 55.746094 248.757812 56.699219 247.523438 57.707031 246.328125 C 58.710938 245.136719 59.765625 243.984375 60.871094 242.882812 L 101.726562 202.074219 C 99.5 193.988281 98.21875 185.753906 97.886719 177.375 C 97.554688 168.992188 98.179688 160.683594 99.761719 152.445312 L 35.054688 217.0625 C 34.046875 218.125 33.070312 219.214844 32.117188 220.324219 C 31.164062 221.433594 30.238281 222.566406 29.339844 223.722656 C 28.441406 224.875 27.574219 226.054688 26.730469 227.25 C 25.890625 228.445312 25.078125 229.664062 24.296875 230.898438 C 23.511719 232.136719 22.761719 233.390625 22.039062 234.664062 C 21.316406 235.933594 20.625 237.222656 19.964844 238.53125 C 19.304688 239.835938 18.675781 241.15625 18.078125 242.492188 C 17.484375 243.828125 16.917969 245.179688 16.386719 246.542969 C 15.855469 247.90625 15.359375 249.28125 14.894531 250.667969 C 14.429688 252.054688 13.996094 253.453125 13.601562 254.859375 C 13.203125 256.269531 12.839844 257.683594 12.511719 259.109375 C 12.179688 260.535156 11.886719 261.96875 11.625 263.410156 C 11.367188 264.847656 11.140625 266.292969 10.949219 267.742188 C 10.757812 269.195312 10.605469 270.648438 10.484375 272.105469 C 10.363281 273.566406 10.277344 275.023438 10.226562 276.488281 C 10.179688 277.949219 10.164062 279.414062 10.183594 280.875 C 10.203125 282.339844 10.261719 283.800781 10.351562 285.261719 C 10.441406 286.71875 10.570312 288.175781 10.730469 289.632812 C 10.890625 291.085938 11.085938 292.535156 11.320312 293.980469 C 11.550781 295.425781 11.816406 296.863281 12.117188 298.296875 C 12.417969 299.726562 12.75 301.152344 13.121094 302.566406 C 13.492188 303.980469 13.894531 305.386719 14.332031 306.785156 C 14.765625 308.179688 15.238281 309.566406 15.742188 310.9375 C 16.246094 312.3125 16.78125 313.671875 17.351562 315.023438 C 17.921875 316.371094 18.523438 317.703125 19.15625 319.019531 C 19.789062 320.339844 20.453125 321.644531 21.152344 322.929688 C 21.847656 324.214844 22.574219 325.484375 23.332031 326.738281 C 24.089844 327.988281 24.878906 329.222656 25.695312 330.433594 C 26.511719 331.648438 27.359375 332.839844 28.230469 334.015625 C 29.105469 335.1875 30.007812 336.339844 30.9375 337.46875 C 31.871094 338.597656 32.828125 339.703125 33.808594 340.785156 C 34.792969 341.871094 35.800781 342.929688 36.835938 343.964844 C 37.871094 344.996094 38.929688 346.007812 40.015625 346.992188 C 41.097656 347.972656 42.203125 348.929688 43.332031 349.859375 C 44.460938 350.792969 45.613281 351.695312 46.785156 352.566406 C 47.957031 353.441406 49.152344 354.289062 50.367188 355.105469 C 51.578125 355.921875 52.8125 356.710938 54.0625 357.46875 C 55.316406 358.226562 56.585938 358.953125 57.871094 359.648438 C 59.15625 360.347656 60.460938 361.011719 61.777344 361.644531 C 63.097656 362.277344 64.429688 362.878906 65.777344 363.449219 C 67.125 364.019531 68.488281 364.554688 69.859375 365.058594 C 71.234375 365.5625 72.621094 366.03125 74.015625 366.46875 C 75.414062 366.90625 76.816406 367.308594 78.234375 367.679688 C 79.648438 368.046875 81.074219 368.382812 82.503906 368.683594 C 83.9375 368.984375 85.375 369.25 86.820312 369.480469 C 88.265625 369.710938 89.714844 369.910156 91.167969 370.070312 C 92.621094 370.230469 94.078125 370.359375 95.539062 370.449219 C 97 370.539062 98.460938 370.59375 99.925781 370.617188 C 101.386719 370.636719 102.851562 370.621094 104.3125 370.570312 C 105.773438 370.523438 107.234375 370.4375 108.695312 370.316406 C 110.152344 370.195312 111.605469 370.039062 113.054688 369.851562 C 114.507812 369.660156 115.953125 369.433594 117.390625 369.175781 C 118.832031 368.914062 120.265625 368.621094 121.691406 368.289062 C 123.117188 367.960938 124.53125 367.597656 125.941406 367.199219 C 127.347656 366.800781 128.746094 366.371094 130.132812 365.90625 C 131.519531 365.441406 132.894531 364.941406 134.257812 364.410156 C 135.621094 363.878906 136.972656 363.316406 138.308594 362.71875 C 139.644531 362.125 140.964844 361.496094 142.269531 360.835938 C 143.578125 360.175781 144.867188 359.484375 146.136719 358.761719 C 147.410156 358.039062 148.664062 357.289062 149.902344 356.503906 C 151.136719 355.722656 152.355469 354.910156 153.550781 354.070312 C 154.746094 353.226562 155.921875 352.359375 157.078125 351.460938 C 158.234375 350.5625 159.367188 349.636719 160.476562 348.683594 C 161.585938 347.730469 162.675781 346.753906 163.738281 345.746094 Z M 163.738281 345.746094 " fill-opacity="1" fill-rule="nonzero"/><path fill="#002366" d="M 373.945312 97.929688 C 373.941406 95.695312 373.855469 93.464844 373.6875 91.238281 C 373.519531 89.011719 373.269531 86.796875 372.9375 84.585938 C 372.609375 82.378906 372.195312 80.183594 371.703125 78.007812 C 371.210938 75.828125 370.640625 73.671875 369.988281 71.535156 C 369.335938 69.398438 368.609375 67.289062 367.800781 65.207031 C 366.996094 63.125 366.113281 61.074219 365.15625 59.058594 C 364.199219 57.039062 363.171875 55.058594 362.066406 53.117188 C 360.964844 51.175781 359.792969 49.277344 358.550781 47.421875 C 357.308594 45.566406 356 43.757812 354.625 42 C 353.25 40.238281 351.808594 38.535156 350.308594 36.878906 C 348.808594 35.226562 347.25 33.628906 345.628906 32.089844 C 344.011719 30.550781 342.339844 29.074219 340.613281 27.660156 C 338.886719 26.242188 337.109375 24.894531 335.28125 23.609375 C 333.457031 22.324219 331.585938 21.105469 329.667969 19.960938 C 327.753906 18.8125 325.796875 17.734375 323.804688 16.734375 C 321.808594 15.730469 319.78125 14.800781 317.71875 13.945312 C 315.652344 13.089844 313.5625 12.3125 311.441406 11.613281 C 309.320312 10.914062 307.175781 10.289062 305.011719 9.746094 C 302.84375 9.203125 300.664062 8.742188 298.460938 8.359375 C 296.261719 7.976562 294.050781 7.675781 291.828125 7.457031 C 289.605469 7.238281 287.378906 7.101562 285.144531 7.042969 C 282.914062 6.988281 280.683594 7.015625 278.453125 7.121094 C 276.222656 7.230469 273.996094 7.421875 271.78125 7.691406 C 269.566406 7.964844 267.363281 8.316406 265.171875 8.753906 C 262.980469 9.1875 260.808594 9.699219 258.65625 10.292969 C 256.503906 10.886719 254.375 11.558594 252.273438 12.308594 C 250.167969 13.058594 248.09375 13.886719 246.054688 14.789062 C 244.011719 15.691406 242.003906 16.667969 240.035156 17.71875 C 238.0625 18.769531 236.132812 19.890625 234.246094 21.082031 C 232.355469 22.273438 230.515625 23.535156 228.71875 24.863281 C 226.921875 26.191406 225.179688 27.582031 223.488281 29.039062 C 221.792969 30.496094 220.15625 32.011719 218.574219 33.585938 L 143.675781 108.304688 C 138.429688 113.492188 133.863281 119.21875 129.96875 125.484375 C 129.117188 126.886719 128.304688 128.308594 127.527344 129.753906 C 126.753906 131.199219 126.019531 132.664062 125.324219 134.152344 C 124.628906 135.636719 123.972656 137.136719 123.359375 138.660156 C 122.746094 140.179688 122.171875 141.714844 121.640625 143.265625 C 121.109375 144.816406 120.621094 146.382812 120.175781 147.960938 C 119.730469 149.539062 119.324219 151.125 118.964844 152.726562 C 118.601562 154.324219 118.285156 155.933594 118.011719 157.550781 C 117.738281 159.167969 117.507812 160.789062 117.320312 162.417969 C 117.136719 164.046875 116.992188 165.679688 116.894531 167.316406 C 116.796875 168.953125 116.742188 170.59375 116.734375 172.230469 C 116.722656 173.871094 116.757812 175.511719 116.835938 177.148438 C 116.914062 178.785156 117.039062 180.421875 117.207031 182.050781 C 117.371094 183.683594 117.582031 185.308594 117.839844 186.925781 C 118.09375 188.546875 118.390625 190.160156 118.734375 191.761719 C 119.074219 193.367188 119.460938 194.960938 119.890625 196.542969 C 120.316406 198.125 120.789062 199.695312 121.300781 201.253906 C 121.8125 202.808594 122.367188 204.351562 122.964844 205.878906 C 123.558594 207.40625 124.195312 208.917969 124.875 210.410156 C 125.550781 211.902344 126.269531 213.378906 127.027344 214.832031 C 127.785156 216.285156 128.582031 217.71875 129.414062 219.128906 C 130.25 220.542969 131.121094 221.929688 132.03125 223.292969 C 132.941406 224.660156 133.886719 225.996094 134.871094 227.308594 C 135.851562 228.625 136.867188 229.910156 137.917969 231.167969 C 138.96875 232.425781 140.054688 233.65625 141.171875 234.855469 C 142.289062 236.054688 143.441406 237.222656 144.621094 238.359375 C 145.800781 239.496094 147.011719 240.601562 148.253906 241.675781 C 149.492188 242.746094 150.761719 243.785156 152.058594 244.789062 C 153.355469 245.792969 154.679688 246.761719 156.027344 247.691406 C 157.375 248.625 158.75 249.519531 160.148438 250.378906 C 161.542969 251.234375 162.964844 252.054688 164.40625 252.835938 C 165.847656 253.617188 167.308594 254.359375 168.789062 255.0625 C 170.269531 255.765625 171.769531 256.425781 173.289062 257.046875 L 198.925781 231.457031 C 200.308594 230.03125 201.570312 228.511719 202.71875 226.886719 C 201.765625 226.796875 200.820312 226.679688 199.875 226.535156 C 198.929688 226.394531 197.988281 226.226562 197.054688 226.035156 C 196.117188 225.839844 195.1875 225.625 194.265625 225.382812 C 193.339844 225.144531 192.421875 224.878906 191.511719 224.589844 C 190.601562 224.300781 189.699219 223.984375 188.804688 223.648438 C 187.910156 223.3125 187.027344 222.953125 186.152344 222.566406 C 185.277344 222.183594 184.414062 221.777344 183.558594 221.347656 C 182.707031 220.921875 181.867188 220.46875 181.035156 219.996094 C 180.207031 219.523438 179.390625 219.027344 178.585938 218.511719 C 177.78125 217.996094 176.992188 217.457031 176.21875 216.898438 C 175.441406 216.339844 174.683594 215.761719 173.9375 215.164062 C 173.191406 214.566406 172.464844 213.949219 171.75 213.3125 C 171.039062 212.675781 170.34375 212.023438 169.667969 211.347656 C 168.988281 210.675781 168.328125 209.984375 167.6875 209.277344 C 167.046875 208.570312 166.425781 207.84375 165.820312 207.105469 C 165.21875 206.363281 164.632812 205.609375 164.070312 204.835938 C 163.507812 204.066406 162.964844 203.277344 162.445312 202.480469 C 161.921875 201.679688 161.421875 200.867188 160.941406 200.039062 C 160.460938 199.214844 160.003906 198.375 159.570312 197.523438 C 159.136719 196.671875 158.722656 195.8125 158.335938 194.941406 C 157.945312 194.066406 157.578125 193.1875 157.234375 192.292969 C 156.890625 191.402344 156.574219 190.503906 156.277344 189.59375 C 155.980469 188.6875 155.710938 187.769531 155.460938 186.847656 C 155.214844 185.925781 154.992188 184.996094 154.792969 184.0625 C 154.59375 183.128906 154.421875 182.191406 154.273438 181.246094 C 154.125 180.300781 154 179.355469 153.898438 178.40625 C 153.800781 177.457031 153.726562 176.503906 153.679688 175.550781 C 153.628906 174.59375 153.605469 173.640625 153.605469 172.6875 C 153.609375 171.730469 153.636719 170.777344 153.6875 169.820312 C 153.738281 168.867188 153.816406 167.917969 153.917969 166.964844 C 154.019531 166.015625 154.144531 165.070312 154.296875 164.128906 C 154.449219 163.183594 154.625 162.246094 154.828125 161.3125 C 154.894531 160.746094 155.03125 160.199219 155.238281 159.667969 C 156.410156 154.84375 158.207031 150.265625 160.636719 145.933594 C 163.066406 141.605469 166.035156 137.683594 169.539062 134.167969 L 244.347656 59.40625 C 246.867188 56.863281 249.613281 54.59375 252.585938 52.597656 C 255.558594 50.597656 258.695312 48.914062 262.003906 47.542969 C 265.308594 46.167969 268.71875 45.132812 272.230469 44.4375 C 275.742188 43.746094 279.289062 43.402344 282.871094 43.414062 C 285.550781 43.410156 288.214844 43.605469 290.867188 44 C 293.515625 44.390625 296.125 44.976562 298.6875 45.753906 C 301.253906 46.53125 303.746094 47.492188 306.167969 48.636719 C 308.589844 49.78125 310.917969 51.101562 313.144531 52.589844 C 315.371094 54.078125 317.476562 55.722656 319.464844 57.523438 C 321.449219 59.324219 323.289062 61.257812 324.988281 63.332031 C 326.6875 65.402344 328.226562 67.589844 329.601562 69.886719 C 330.976562 72.1875 332.175781 74.574219 333.199219 77.050781 C 334.222656 79.527344 335.058594 82.066406 335.710938 84.664062 C 336.359375 87.265625 336.8125 89.898438 337.070312 92.566406 C 337.332031 95.234375 337.394531 97.90625 337.257812 100.582031 C 337.125 103.257812 336.792969 105.910156 336.265625 108.535156 C 335.738281 111.164062 335.023438 113.738281 334.113281 116.257812 C 333.207031 118.78125 332.121094 121.222656 330.851562 123.582031 C 329.585938 125.945312 328.152344 128.199219 326.550781 130.347656 C 324.949219 132.496094 323.199219 134.515625 321.300781 136.40625 L 280.539062 177.167969 C 283.183594 186.753906 284.527344 196.519531 284.5625 206.460938 C 284.492188 213.34375 283.824219 220.167969 282.550781 226.933594 L 347.210938 162.226562 C 349.328125 160.125 351.335938 157.925781 353.230469 155.628906 C 355.128906 153.332031 356.910156 150.945312 358.574219 148.46875 C 360.234375 145.996094 361.769531 143.445312 363.179688 140.820312 C 364.589844 138.195312 365.867188 135.503906 367.011719 132.753906 C 368.15625 130 369.164062 127.199219 370.03125 124.347656 C 370.898438 121.496094 371.621094 118.609375 372.203125 115.683594 C 372.785156 112.761719 373.222656 109.816406 373.511719 106.851562 C 373.804688 103.882812 373.949219 100.910156 373.945312 97.929688 Z M 373.945312 97.929688 " fill-opacity="1" fill-rule="nonzero"/><g fill="#ffffff" fill-opacity="1"><g transform="translate(332.414483, 371.349967)"><g><path d="M 8.921875 -11.421875 L 8.921875 -10.28125 L 5.34375 -10.28125 L 5.34375 0 L 4 0 L 4 -10.28125 L 0.421875 -10.28125 L 0.421875 -11.421875 Z M 8.921875 -11.421875 "/></g></g></g><g fill="#ffffff" fill-opacity="1"><g transform="translate(341.74033, 371.349967)"><g><path d="M 8.21875 -4.015625 L 2.296875 -4.015625 C 2.328125 -2.972656 2.578125 -2.207031 3.046875 -1.71875 C 3.515625 -1.226562 4.15625 -0.984375 4.96875 -0.984375 C 5.582031 -0.984375 6.078125 -1.09375 6.453125 -1.3125 C 6.828125 -1.53125 7.117188 -1.875 7.328125 -2.34375 L 7.5 -2.34375 L 8.328125 -1.84375 C 8.078125 -1.21875 7.675781 -0.722656 7.125 -0.359375 C 6.570312 -0.00390625 5.851562 0.171875 4.96875 0.171875 C 4.132812 0.171875 3.414062 0.00390625 2.8125 -0.328125 C 2.21875 -0.660156 1.757812 -1.160156 1.4375 -1.828125 C 1.113281 -2.492188 0.953125 -3.320312 0.953125 -4.3125 C 0.953125 -5.289062 1.117188 -6.113281 1.453125 -6.78125 C 1.796875 -7.457031 2.265625 -7.957031 2.859375 -8.28125 C 3.453125 -8.613281 4.128906 -8.78125 4.890625 -8.78125 C 5.992188 -8.78125 6.851562 -8.46875 7.46875 -7.84375 C 8.09375 -7.226562 8.40625 -6.304688 8.40625 -5.078125 C 8.40625 -4.597656 8.394531 -4.273438 8.375 -4.109375 Z M 7.15625 -5.078125 C 7.132812 -5.992188 6.929688 -6.660156 6.546875 -7.078125 C 6.160156 -7.492188 5.609375 -7.703125 4.890625 -7.703125 C 4.128906 -7.703125 3.535156 -7.492188 3.109375 -7.078125 C 2.679688 -6.660156 2.421875 -5.992188 2.328125 -5.078125 Z M 7.15625 -5.078125 "/></g></g></g><g fill="#ffffff" fill-opacity="1"><g transform="translate(350.925587, 371.349967)"><g><path d="M 3.9375 0.171875 C 3.394531 0.171875 2.890625 0.0976562 2.421875 -0.046875 C 1.960938 -0.191406 1.570312 -0.390625 1.25 -0.640625 C 0.9375 -0.890625 0.71875 -1.171875 0.59375 -1.484375 L 1.34375 -2.265625 L 1.5 -2.265625 C 1.78125 -1.835938 2.117188 -1.515625 2.515625 -1.296875 C 2.910156 -1.085938 3.382812 -0.984375 3.9375 -0.984375 C 4.570312 -0.984375 5.050781 -1.101562 5.375 -1.34375 C 5.707031 -1.59375 5.875 -1.941406 5.875 -2.390625 C 5.875 -2.722656 5.773438 -3 5.578125 -3.21875 C 5.378906 -3.445312 5.054688 -3.613281 4.609375 -3.71875 L 3.15625 -4.078125 C 2.375 -4.265625 1.804688 -4.5625 1.453125 -4.96875 C 1.097656 -5.375 0.921875 -5.878906 0.921875 -6.484375 C 0.921875 -6.953125 1.039062 -7.359375 1.28125 -7.703125 C 1.519531 -8.046875 1.863281 -8.3125 2.3125 -8.5 C 2.757812 -8.6875 3.296875 -8.78125 3.921875 -8.78125 C 4.710938 -8.78125 5.332031 -8.671875 5.78125 -8.453125 C 6.238281 -8.234375 6.597656 -7.925781 6.859375 -7.53125 L 6.140625 -6.828125 L 5.984375 -6.828125 C 5.703125 -7.140625 5.398438 -7.363281 5.078125 -7.5 C 4.753906 -7.644531 4.367188 -7.71875 3.921875 -7.71875 C 3.347656 -7.71875 2.910156 -7.613281 2.609375 -7.40625 C 2.304688 -7.207031 2.15625 -6.914062 2.15625 -6.53125 C 2.15625 -6.1875 2.257812 -5.90625 2.46875 -5.6875 C 2.6875 -5.476562 3.0625 -5.304688 3.59375 -5.171875 L 5.03125 -4.828125 C 5.78125 -4.648438 6.320312 -4.351562 6.65625 -3.9375 C 6.988281 -3.53125 7.15625 -3.019531 7.15625 -2.40625 C 7.15625 -1.894531 7.035156 -1.445312 6.796875 -1.0625 C 6.554688 -0.675781 6.191406 -0.375 5.703125 -0.15625 C 5.222656 0.0625 4.632812 0.171875 3.9375 0.171875 Z M 3.9375 0.171875 "/></g></g></g><g fill="#ffffff" fill-opacity="1"><g transform="translate(358.892391, 371.349967)"><g><path d="M 5.828125 -1.375 L 6.234375 -0.453125 C 6.035156 -0.253906 5.769531 -0.101562 5.4375 0 C 5.101562 0.113281 4.742188 0.171875 4.359375 0.171875 C 2.710938 0.171875 1.890625 -0.664062 1.890625 -2.34375 L 1.890625 -7.578125 L 0.390625 -7.578125 L 0.390625 -8.625 L 1.890625 -8.625 L 1.890625 -10.453125 L 3.171875 -10.65625 L 3.171875 -8.625 L 5.9375 -8.625 L 5.9375 -7.578125 L 3.171875 -7.578125 L 3.171875 -2.46875 C 3.171875 -1.476562 3.597656 -0.984375 4.453125 -0.984375 C 4.921875 -0.984375 5.328125 -1.113281 5.671875 -1.375 Z M 5.828125 -1.375 "/></g></g></g><g fill="#ffffff" fill-opacity="1"><g transform="translate(365.453288, 371.349967)"><g/></g></g><g fill="#ffffff" fill-opacity="1"><g transform="translate(369.374205, 371.349967)"><g><path d="M 8.921875 -11.421875 L 8.921875 -10.28125 L 5.34375 -10.28125 L 5.34375 0 L 4 0 L 4 -10.28125 L 0.421875 -10.28125 L 0.421875 -11.421875 Z M 8.921875 -11.421875 "/></g></g></g></svg>